<svg xmlns="http://www.w3.org/2000/svg" viewBox="756 466 3780 974"><path fill-rule="evenodd" fill="#1c1a18" d="M 1209 498.864 C 1195.525 507.008, 1176.175 518.638, 1166 524.709 C 1155.825 530.780, 1127.925 547.563, 1104 562.004 C 1080.075 576.446, 1058.025 589.723, 1055 591.510 C 1051.975 593.297, 1035.550 603.197, 1018.500 613.511 C 978.589 637.651, 891.630 690.049, 859.500 709.317 C 834.387 724.377, 812.661 737.631, 801.500 744.700 C 798.200 746.790, 795.545 749.063, 795.600 749.750 C 795.655 750.438, 795.768 796.606, 795.850 852.346 L 796 953.691 806.250 960.064 C 811.888 963.568, 828.650 974.060, 843.500 983.378 C 858.350 992.696, 883.100 1008.172, 898.500 1017.770 C 913.900 1027.367, 929.200 1036.968, 932.500 1039.105 C 935.800 1041.242, 945.250 1047.235, 953.500 1052.423 C 961.750 1057.611, 972.325 1064.294, 977 1067.274 C 981.675 1070.254, 990.225 1075.638, 996 1079.237 C 1008.098 1086.779, 1024.131 1096.898, 1040.250 1107.167 C 1046.438 1111.109, 1057.125 1117.833, 1064 1122.109 C 1070.875 1126.385, 1080.410 1132.385, 1085.189 1135.442 C 1094.710 1141.534, 1140.891 1170.468, 1161.500 1183.253 C 1168.650 1187.689, 1178.325 1193.721, 1183 1196.658 C 1213.219 1215.643, 1247.386 1236.915, 1261.284 1245.396 C 1270.203 1250.839, 1281.550 1257.885, 1286.500 1261.053 C 1291.450 1264.222, 1306.075 1273.348, 1319 1281.333 C 1331.925 1289.319, 1344.975 1297.573, 1348 1299.676 L 1353.500 1303.500 1343.500 1304.048 C 1327.695 1304.914, 937.642 1304.556, 936.250 1303.674 C 935.270 1303.053, 935 1288.423, 935 1236.031 L 935 1169.180 920.750 1160.222 C 912.913 1155.296, 900.650 1147.548, 893.500 1143.006 C 886.350 1138.464, 877.125 1132.610, 873 1129.998 C 868.875 1127.386, 858.300 1120.612, 849.500 1114.945 C 806.160 1087.035, 799.771 1083, 798.919 1083 C 798.364 1083, 798 1150.752, 798 1254 L 798 1425 803.750 1425.019 C 806.913 1425.029, 966.100 1425.026, 1157.500 1425.013 C 1348.900 1424.999, 1506.513 1424.991, 1507.750 1424.994 L 1510 1425 1510 1325.063 L 1510 1225.126 1495.250 1216.185 C 1487.138 1211.268, 1466.775 1198.801, 1450 1188.482 C 1433.225 1178.162, 1411.625 1164.908, 1402 1159.029 C 1386.540 1149.585, 1347.273 1125.289, 1326 1112.004 C 1321.875 1109.428, 1307.700 1100.586, 1294.500 1092.354 C 1281.300 1084.123, 1268.399 1076.063, 1265.831 1074.444 C 1263.262 1072.825, 1253.137 1066.498, 1243.331 1060.384 C 1233.524 1054.270, 1216.725 1043.735, 1206 1036.973 C 1170.154 1014.371, 1135.635 992.729, 1121.500 983.994 C 1077.534 956.827, 1063.942 948.348, 1059 945.007 C 1055.975 942.962, 1048.325 938.146, 1042 934.305 C 1030.735 927.464, 1026.373 924.737, 999 907.428 C 991.575 902.733, 975.600 892.677, 963.500 885.081 L 941.500 871.270 941.229 851.702 L 940.958 832.134 944.229 829.706 C 947.699 827.131, 972.455 812.122, 987.500 803.472 C 992.450 800.626, 1003.475 794.038, 1012 788.831 C 1020.525 783.624, 1037.625 773.382, 1050 766.070 C 1062.375 758.758, 1075.875 750.644, 1080 748.037 C 1087.879 743.060, 1132.265 716.531, 1162 699.027 C 1171.625 693.361, 1183.325 686.396, 1188 683.550 C 1209.728 670.318, 1234.165 656, 1235.019 656 C 1235.537 656, 1236.207 654.987, 1236.506 653.750 C 1236.805 652.513, 1236.926 613.931, 1236.775 568.014 C 1236.534 494.717, 1236.317 484.499, 1235 484.292 C 1234.175 484.163, 1222.475 490.720, 1209 498.864 M 1252.500 698.697 C 1249.200 700.643, 1232.550 710.354, 1215.500 720.277 C 1157.219 754.194, 1153.186 756.578, 1078.500 801.251 C 1016.927 838.080, 1000.831 847.866, 998.750 849.737 C 997.757 850.629, 997 852.733, 997 854.598 C 997 861.464, 987.183 860.999, 1132.473 861.009 L 1263.500 861.018 1318.073 897.259 C 1348.089 917.191, 1376.326 935.882, 1380.823 938.794 L 1389 944.088 1389 991.926 L 1389 1039.763 1426.510 1063.631 C 1447.141 1076.759, 1470.203 1091.440, 1477.760 1096.255 C 1498.759 1109.635, 1507.669 1115, 1508.889 1115 C 1509.698 1115, 1510 1079.298, 1510 983.614 L 1510 852.227 1497.750 844.265 C 1491.013 839.886, 1481.225 833.602, 1476 830.300 C 1470.775 826.999, 1459.075 819.572, 1450 813.796 C 1440.925 808.020, 1422.250 796.178, 1408.500 787.480 C 1394.750 778.783, 1380.575 769.809, 1377 767.538 C 1373.425 765.267, 1367.350 761.446, 1363.500 759.047 C 1359.650 756.649, 1354.700 753.548, 1352.500 752.158 C 1345.063 747.457, 1294.613 715.857, 1277.841 705.393 C 1268.678 699.677, 1260.578 695.035, 1259.841 695.079 C 1259.103 695.122, 1255.800 696.750, 1252.500 698.697"/><path fill-rule="evenodd" fill="#b58849" d="M 1272.750 484.571 C 1271.780 485.557, 1271.795 643.165, 1272.765 644.543 C 1273.169 645.117, 1278 648.318, 1283.500 651.657 C 1289 654.995, 1300.700 662.124, 1309.500 667.498 C 1347.981 690.997, 1368.722 703.382, 1371.682 704.629 C 1373.432 705.366, 1375.112 706.373, 1375.417 706.865 C 1375.997 707.803, 1407.507 727.478, 1456.500 757.493 C 1482.720 773.556, 1509.933 790.400, 1578.500 833.006 C 1608.972 851.941, 1627.050 863.078, 1629.500 864.425 C 1630.600 865.030, 1634.650 867.591, 1638.500 870.118 C 1645.948 875.006, 1673.356 892.026, 1678.683 895.071 C 1681.786 896.845, 1686.365 899.733, 1700.338 908.730 C 1704.099 911.152, 1708.599 913.943, 1710.338 914.933 C 1712.077 915.923, 1717.325 919.112, 1722 922.020 C 1748.200 938.316, 1761.516 946.047, 1762.920 945.777 C 1764.341 945.503, 1764.528 937.806, 1764.775 869.486 C 1765.047 794.619, 1764.922 789, 1762.986 789 C 1762.450 789, 1755.821 785.025, 1748.255 780.166 C 1740.690 775.308, 1727.075 766.706, 1718 761.052 C 1708.925 755.398, 1696.100 747.289, 1689.500 743.031 C 1682.900 738.773, 1672.775 732.357, 1667 728.772 C 1661.225 725.187, 1650.650 718.533, 1643.500 713.986 C 1636.350 709.438, 1622.850 700.888, 1613.500 694.986 C 1604.150 689.083, 1584.575 676.704, 1570 667.475 C 1555.425 658.247, 1539.675 648.281, 1535 645.330 C 1530.325 642.378, 1522.225 637.244, 1517 633.920 C 1511.775 630.596, 1500.075 623.177, 1491 617.432 C 1463.343 599.924, 1459.410 597.422, 1432.426 580.170 C 1400.784 559.940, 1383.838 549.206, 1379.075 546.375 C 1377.109 545.207, 1369.090 540.144, 1361.255 535.125 C 1353.420 530.106, 1346.872 526, 1346.703 526 C 1346.535 526, 1342.055 523.188, 1336.749 519.750 C 1331.442 516.313, 1322.466 510.607, 1316.800 507.072 C 1311.135 503.537, 1300.925 497.062, 1294.110 492.684 C 1282.164 485.008, 1274.998 482.286, 1272.750 484.571 M 1559.200 874.200 C 1558.273 875.127, 1558 937.570, 1558 1149.165 C 1558 1418.805, 1558.029 1422.945, 1559.934 1423.965 C 1562.887 1425.545, 1694.214 1425.386, 1695.800 1423.800 C 1697.831 1421.769, 1697.513 956.656, 1695.479 954.622 C 1694.642 953.785, 1688.680 949.913, 1682.229 946.017 C 1666.143 936.302, 1650.600 926.688, 1630.500 914.021 C 1621.150 908.129, 1611.700 902.259, 1609.500 900.978 C 1605.270 898.515, 1601.348 896.062, 1586 886.280 C 1565.196 873.022, 1561.875 871.525, 1559.200 874.200"/><g transform="translate(1705.2 -1118) scale(1.2)"><path fill-rule="evenodd" fill="#1c1a18" d="M 254.500 1551.483 C 222.582 1555.892, 198.573 1570.060, 187.585 1590.970 C 182.465 1600.714, 181.074 1605.928, 180.373 1618 C 179.213 1637.993, 183.813 1651.043, 196.410 1663.500 C 210.416 1677.350, 222.794 1682.280, 273 1694.006 C 301.542 1700.672, 310.244 1706.309, 310.153 1718.072 C 310.082 1727.241, 304.652 1733.228, 292.920 1737.070 C 280.575 1741.113, 256.263 1740.545, 239 1735.810 C 228.784 1733.008, 213.285 1725.228, 203.463 1717.973 C 199.492 1715.039, 197.938 1714.374, 197.192 1715.287 C 194.770 1718.248, 175.119 1759.146, 175.562 1760.301 C 177.815 1766.171, 213.620 1781.568, 234.500 1785.646 C 245.986 1787.889, 282.793 1788.210, 293.500 1786.160 C 325.725 1779.991, 347.646 1766.031, 358.055 1745.049 C 373.410 1714.097, 365.271 1679.322, 338.677 1662.252 C 327.720 1655.218, 302.737 1646.050, 287.500 1643.471 C 279.333 1642.089, 258.249 1636.881, 250.682 1634.377 C 235.224 1629.263, 230.089 1619.582, 237.221 1609 C 241.973 1601.949, 254.403 1598.093, 272.566 1598.035 C 292.045 1597.973, 306.940 1601.570, 326.654 1611.094 C 332.238 1613.792, 337.089 1616, 337.432 1616 C 337.776 1616, 342.784 1606.451, 348.562 1594.780 L 359.068 1573.560 356.784 1571.747 C 352.759 1568.553, 336.801 1561.303, 326.793 1558.121 C 303.156 1550.607, 277.742 1548.273, 254.500 1551.483 M 786.672 1552.661 C 786.303 1553.031, 786 1563.826, 786 1576.651 L 786 1599.969 814.250 1600.234 L 842.500 1600.500 842.755 1692.635 L 843.010 1784.769 845.255 1785.372 C 846.490 1785.703, 858.410 1785.683, 871.745 1785.328 L 895.990 1784.681 896.245 1692.591 L 896.500 1600.500 925.768 1600.235 L 955.036 1599.970 954.768 1576.235 L 954.500 1552.500 870.922 1552.244 C 824.955 1552.104, 787.042 1552.291, 786.672 1552.661 M 1375.488 1553.233 C 1375.234 1553.930, 1374.907 1585.775, 1374.763 1624 C 1374.576 1673.325, 1374.184 1693.500, 1373.410 1693.500 C 1372.193 1693.500, 1353.214 1669.987, 1314.082 1620 C 1299.659 1601.575, 1283.244 1580.650, 1277.606 1573.500 C 1271.968 1566.350, 1266.097 1558.813, 1264.559 1556.750 L 1261.763 1553 1238.510 1553 L 1215.258 1553 1214.678 1557.750 C 1213.487 1567.500, 1213.884 1783.156, 1215.096 1784.616 C 1216.773 1786.637, 1264.214 1786.652, 1265.891 1784.631 C 1266.715 1783.639, 1267.016 1764.914, 1266.986 1716.492 C 1266.963 1679.768, 1267.216 1649.451, 1267.547 1649.119 C 1267.879 1648.788, 1268.649 1649.408, 1269.258 1650.497 C 1269.868 1651.587, 1272.232 1654.508, 1274.511 1656.989 C 1276.791 1659.470, 1281.518 1665.325, 1285.016 1670 C 1288.514 1674.675, 1296.889 1685.475, 1303.628 1694 C 1310.367 1702.525, 1319.360 1714, 1323.613 1719.500 C 1331.521 1729.727, 1334.591 1733.620, 1360.510 1766.283 C 1368.743 1776.657, 1376.330 1785.290, 1377.458 1785.565 C 1378.581 1785.839, 1390.075 1785.937, 1403 1785.782 L 1426.500 1785.500 1426.500 1669 L 1426.500 1552.500 1401.225 1552.233 C 1381.537 1552.025, 1375.848 1552.246, 1375.488 1553.233 M 396.423 1554.341 C 396.140 1555.078, 396.056 1590.741, 396.237 1633.591 C 396.565 1711.329, 396.571 1711.518, 398.857 1719.500 C 408.747 1754.026, 433.374 1776.376, 471.159 1785.115 C 482.353 1787.704, 512.266 1788.305, 522.500 1786.147 C 565.179 1777.145, 592.026 1751.925, 600.103 1713.249 C 601.958 1704.365, 602.106 1698.968, 602.404 1629.461 C 602.579 1588.600, 602.416 1554.673, 602.041 1554.067 C 601.567 1553.300, 593.497 1553.047, 575.430 1553.233 L 549.500 1553.500 549 1626.500 C 548.503 1699.027, 548.485 1699.541, 546.249 1705.884 C 543.244 1714.406, 541.147 1717.601, 534.236 1724.194 C 524.279 1733.691, 515.294 1737.007, 499.568 1736.988 C 474.143 1736.958, 457.811 1725.671, 450.391 1703 C 448.739 1697.954, 448.561 1691.540, 448.236 1625.250 L 447.881 1553 422.409 1553 C 402.033 1553, 396.834 1553.268, 396.423 1554.341 M 646 1669 C 646 1761.073, 646.258 1785.023, 647.250 1785.114 C 653.525 1785.683, 799.706 1784.642, 800.348 1784.022 C 801.242 1783.160, 801.292 1738.281, 800.401 1736.839 C 800.115 1736.378, 777.232 1736, 749.548 1736 C 704.572 1736, 699.149 1735.832, 698.607 1734.418 C 698.273 1733.548, 698 1692.373, 698 1642.918 L 698 1553 672 1553 L 646 1553 646 1669 M 1028.172 1574.735 C 1023.181 1586.706, 1017.543 1600.100, 1015.643 1604.500 C 1010.134 1617.257, 1001.023 1638.729, 996.974 1648.500 C 994.922 1653.450, 991.567 1661.325, 989.517 1666 C 987.466 1670.675, 984.244 1678.100, 982.356 1682.500 C 980.467 1686.900, 978.304 1691.850, 977.549 1693.500 C 976.794 1695.150, 972.942 1704.150, 968.988 1713.500 C 965.035 1722.850, 959.546 1735.675, 956.792 1742 C 943.883 1771.647, 939 1783.166, 939 1783.969 C 939 1785.546, 951.171 1786.149, 972.500 1785.628 C 984.050 1785.346, 993.766 1785.089, 994.092 1785.058 C 994.418 1785.026, 998.427 1775.888, 1003.002 1764.750 C 1007.577 1753.612, 1011.756 1743.933, 1012.290 1743.241 C 1013.052 1742.252, 1024.113 1742.037, 1063.832 1742.241 L 1114.404 1742.500 1122.770 1763.623 L 1131.136 1784.747 1135.708 1785.373 C 1138.222 1785.718, 1151.016 1786, 1164.140 1786 L 1188 1786 1187.973 1783.750 C 1187.958 1782.513, 1186.564 1778.350, 1184.875 1774.500 C 1181.815 1767.522, 1175.381 1751.989, 1160.229 1715 C 1155.836 1704.275, 1151.025 1692.800, 1149.538 1689.500 C 1148.052 1686.200, 1145.915 1681.025, 1144.790 1678 C 1143.664 1674.975, 1141.941 1670.700, 1140.961 1668.500 C 1139.980 1666.300, 1137.825 1661.125, 1136.172 1657 C 1134.519 1652.875, 1131.953 1646.800, 1130.471 1643.500 C 1127.978 1637.948, 1120.246 1619.313, 1109.309 1592.500 C 1106.841 1586.450, 1104.192 1580.150, 1103.423 1578.500 C 1102.653 1576.850, 1100.036 1570.550, 1097.607 1564.500 L 1093.191 1553.500 1065.219 1553.235 L 1037.246 1552.969 1028.172 1574.735 M 1051.726 1644.750 C 1045.310 1660.563, 1038.219 1677.919, 1035.970 1683.320 C 1033.720 1688.720, 1032.037 1693.611, 1032.229 1694.187 C 1032.715 1695.646, 1094.099 1695.905, 1094.657 1694.451 C 1095.157 1693.150, 1089.138 1675.858, 1083.536 1662.500 C 1081.230 1657, 1076.228 1644.295, 1072.422 1634.267 C 1068.615 1624.239, 1065.026 1616.027, 1064.446 1616.017 C 1063.866 1616.008, 1058.142 1628.938, 1051.726 1644.750"/><path fill-rule="evenodd" fill="#b58849" d="M 1774.500 1585.609 C 1755.063 1588.372, 1731.766 1601.190, 1719.569 1615.832 C 1707.781 1629.984, 1703.138 1638.708, 1697.364 1657.556 C 1694.808 1665.897, 1694.624 1667.713, 1694.629 1684.500 C 1694.634 1700.850, 1694.880 1703.410, 1697.305 1712.429 C 1710.027 1759.733, 1751.479 1788.864, 1799.063 1783.941 C 1840.362 1779.668, 1873.263 1748.590, 1882.103 1705.500 C 1884.200 1695.282, 1883.593 1669.870, 1881.003 1659.404 C 1875.331 1636.486, 1858.494 1611.952, 1840.592 1600.522 C 1823.614 1589.681, 1811.139 1585.813, 1792 1585.454 C 1784.025 1585.305, 1776.150 1585.375, 1774.500 1585.609 M 2047.750 1586.778 L 2034 1587.056 2034 1646.278 C 2034 1711.928, 2033.708 1715.755, 2027.776 1727.802 C 2020.015 1743.568, 2005.099 1752.024, 1985.114 1751.988 C 1965.086 1751.952, 1949.416 1740.242, 1942.928 1720.464 C 1940.667 1713.569, 1940.640 1712.885, 1940.279 1651.500 C 1940.078 1617.400, 1939.717 1588.925, 1939.477 1588.222 C 1939.145 1587.248, 1935.755 1587.010, 1925.271 1587.222 L 1911.500 1587.500 1911.207 1649.500 C 1910.854 1724.263, 1911.179 1727.466, 1921.143 1747.486 C 1938.398 1782.158, 1989.575 1795.621, 2025.304 1774.888 C 2045.122 1763.388, 2058.311 1743.925, 2061.925 1720.846 C 2063.173 1712.873, 2063.599 1588.122, 2062.381 1587.181 C 2061.896 1586.806, 2055.313 1586.625, 2047.750 1586.778 M 2321.526 1587.250 C 2319.337 1593.899, 2313.006 1614.046, 2312.491 1616 C 2311.031 1621.543, 2297.386 1664.688, 2291.460 1682.500 C 2287.984 1692.950, 2283.070 1708.675, 2280.542 1717.444 C 2278.014 1726.213, 2275.832 1733.501, 2275.694 1733.640 C 2274.673 1734.660, 2273.156 1731.144, 2271.104 1723 C 2269.788 1717.775, 2267.163 1708.550, 2265.271 1702.500 C 2263.380 1696.450, 2259.373 1683.175, 2256.367 1673 C 2253.362 1662.825, 2249.156 1648.650, 2247.022 1641.500 C 2241.428 1622.762, 2235.462 1602.622, 2233.017 1594.221 L 2230.898 1586.941 2218.281 1587.221 L 2205.664 1587.500 2203.914 1593 C 2195.230 1620.296, 2192.146 1630.162, 2184.531 1655 C 2175.466 1684.572, 2168.516 1707.111, 2163.003 1724.812 C 2161.237 1730.484, 2159.655 1734.984, 2159.488 1734.812 C 2159.188 1734.504, 2156.204 1724.566, 2151.437 1708 C 2150.091 1703.325, 2147.668 1695.225, 2146.051 1690 C 2138.502 1665.607, 2134.712 1653.048, 2129.452 1635 C 2126.327 1624.275, 2122.427 1611, 2120.786 1605.500 C 2119.144 1600, 2117.456 1594.091, 2117.033 1592.368 C 2115.704 1586.953, 2115.851 1587, 2100 1587 C 2084.087 1587, 2083.112 1587.309, 2084.839 1591.810 C 2085.407 1593.290, 2087.293 1599.225, 2089.031 1605 C 2094.520 1623.241, 2106.775 1662.756, 2113.995 1685.500 C 2116.091 1692.100, 2120.131 1704.925, 2122.974 1714 C 2125.817 1723.075, 2130.778 1738.825, 2133.998 1749 C 2137.219 1759.175, 2140.966 1771.100, 2142.325 1775.500 L 2144.797 1783.500 2156.648 1784.294 C 2172.651 1785.366, 2172.027 1785.655, 2174.956 1775.834 C 2176.307 1771.304, 2177.432 1766.676, 2177.456 1765.549 C 2177.480 1764.422, 2178.287 1762.387, 2179.250 1761.027 C 2180.213 1759.668, 2181 1758.075, 2181 1757.488 C 2181 1756.902, 2183.272 1749.464, 2186.049 1740.961 C 2194.839 1714.042, 2204.546 1684.140, 2210.954 1664.239 C 2214.365 1653.646, 2217.535 1645.213, 2217.999 1645.499 C 2219.142 1646.206, 2228.786 1676.333, 2241.048 1717.500 C 2243.342 1725.200, 2246.466 1735.550, 2247.991 1740.500 C 2249.517 1745.450, 2252.884 1756.740, 2255.474 1765.588 C 2258.063 1774.437, 2260.511 1782.208, 2260.912 1782.857 C 2261.394 1783.638, 2266.113 1784.152, 2274.861 1784.377 C 2290.255 1784.772, 2288.239 1786.325, 2293.539 1769.995 C 2295.590 1763.673, 2299.009 1753.387, 2301.135 1747.139 C 2303.261 1740.890, 2305 1734.793, 2305 1733.589 C 2305 1732.385, 2305.408 1730.973, 2305.907 1730.450 C 2306.782 1729.532, 2322.918 1681.726, 2332.385 1652 C 2334.925 1644.025, 2337.487 1636.150, 2338.078 1634.500 C 2342.418 1622.387, 2353 1589.279, 2353 1587.812 C 2353 1586.140, 2351.796 1586, 2337.469 1586 C 2325.930 1586, 2321.831 1586.321, 2321.526 1587.250 M 1531.800 1588.687 C 1530.694 1592.984, 1531.001 1779.296, 1532.116 1780.640 C 1533.464 1782.264, 1612.502 1782.588, 1624.566 1781.020 C 1650.274 1777.678, 1668.839 1762.433, 1675.129 1739.500 C 1677.440 1731.074, 1676.683 1715.815, 1673.543 1707.500 C 1668.855 1695.090, 1661.134 1686.095, 1651.024 1681.265 L 1647.350 1679.510 1654.042 1673.005 C 1661.445 1665.807, 1664.250 1661.077, 1666.648 1651.749 C 1668.556 1644.324, 1668.018 1631.519, 1665.439 1623.001 C 1663.166 1615.490, 1652.828 1600, 1650.090 1600 C 1649.490 1600, 1649 1599.606, 1649 1599.124 C 1649 1597.761, 1636.171 1591.372, 1629.500 1589.413 C 1624.256 1587.874, 1617.749 1587.603, 1577.883 1587.263 C 1534.491 1586.893, 1532.243 1586.962, 1531.800 1588.687 M 1560.512 1618.830 C 1559.786 1620.721, 1559.873 1664.507, 1560.607 1666.418 C 1561.140 1667.806, 1564.509 1668, 1588.134 1668 C 1614.615 1668, 1615.181 1667.957, 1622.907 1665.349 C 1630.312 1662.849, 1630.938 1662.406, 1633.862 1657.580 C 1642.300 1643.657, 1638.767 1627.947, 1625.766 1621.586 C 1618.412 1617.988, 1607.274 1616.881, 1581.850 1617.219 C 1565.609 1617.435, 1560.911 1617.789, 1560.512 1618.830 M 1776.500 1619.465 C 1755.851 1623.830, 1740.380 1636.077, 1730.976 1655.500 C 1713.342 1691.920, 1730.654 1735.377, 1767.976 1748.376 C 1778.753 1752.129, 1795.493 1752.670, 1805.500 1749.589 C 1826.784 1743.034, 1843.084 1727.054, 1850.135 1705.830 C 1854.268 1693.389, 1853.530 1673.768, 1848.419 1660.189 C 1837.545 1631.299, 1805.731 1613.284, 1776.500 1619.465 M 1568.885 1695.741 L 1561.269 1696.079 1560.643 1701.290 C 1559.468 1711.075, 1559.897 1748.497, 1561.200 1749.800 C 1563.091 1751.691, 1615.564 1751.427, 1623.803 1749.484 C 1631.972 1747.558, 1636.903 1744.655, 1640.554 1739.618 C 1650.349 1726.110, 1648.206 1711.062, 1635.036 1700.871 C 1630.579 1697.422, 1629.774 1697.185, 1618.870 1696.121 C 1608.261 1695.085, 1587.246 1694.925, 1568.885 1695.741 M 562.245 1886.807 C 561.264 1887.446, 561.045 1896.892, 561.245 1930.062 L 561.500 1972.500 566 1972.500 L 570.500 1972.500 571 1958.500 L 571.500 1944.500 585.105 1944.223 L 598.710 1943.945 603.355 1949.382 C 605.910 1952.372, 608 1955.095, 608 1955.433 C 608 1956.307, 618.297 1971.351, 619.500 1972.235 C 620.050 1972.639, 622.413 1972.976, 624.750 1972.985 C 630.528 1973.006, 630.324 1971.520, 623.182 1961.590 C 615.314 1950.648, 611 1944.076, 611 1943.031 C 611 1942.554, 612.663 1941.135, 614.696 1939.879 C 625.845 1932.989, 629.205 1927.327, 629.759 1914.500 C 630.136 1905.748, 630.056 1905.352, 626.824 1900.112 C 623.122 1894.112, 617.286 1889.429, 611.397 1887.734 C 606.810 1886.414, 564.086 1885.608, 562.245 1886.807 M 739.457 1887.250 C 739.194 1887.938, 739.095 1907.400, 739.239 1930.500 L 739.500 1972.500 770 1972.500 L 800.500 1972.500 800.500 1968.500 L 800.500 1964.500 774.851 1964.233 C 755.643 1964.034, 749.082 1963.657, 748.728 1962.733 C 748.468 1962.055, 748.310 1955.425, 748.377 1948 L 748.500 1934.500 770 1934 C 781.825 1933.725, 792.063 1933.136, 792.750 1932.691 C 793.438 1932.246, 794 1930.334, 794 1928.441 L 794 1925 772.035 1925 C 750.973 1925, 750.026 1924.916, 748.982 1922.967 C 747.831 1920.816, 747.804 1897.935, 748.950 1896.080 C 749.365 1895.409, 758.707 1894.939, 775.035 1894.768 C 802.961 1894.474, 802.140 1894.678, 800.570 1888.421 L 799.962 1886 769.950 1886 C 746.858 1886, 739.827 1886.288, 739.457 1887.250 M 907.457 1887.250 C 907.194 1887.938, 907.095 1907.400, 907.239 1930.500 L 907.500 1972.500 910.877 1972.823 C 912.735 1973, 914.632 1972.768, 915.095 1972.305 C 915.557 1971.843, 915.982 1956.510, 916.040 1938.233 C 916.119 1913.441, 916.444 1905.010, 917.323 1905.040 C 917.970 1905.062, 920.300 1907.374, 922.500 1910.178 C 927.588 1916.663, 943.955 1936.953, 953.009 1948 C 956.841 1952.675, 962.805 1960.100, 966.263 1964.500 C 972.449 1972.372, 972.621 1972.500, 977.025 1972.500 L 981.500 1972.500 981.500 1931.566 C 981.500 1905.621, 981.125 1889.876, 980.475 1888.566 C 979.265 1886.126, 975.506 1885.335, 973.405 1887.079 C 972.151 1888.119, 971.933 1892.767, 972.002 1916.906 C 972.118 1957.119, 972.188 1955.019, 970.750 1954.394 C 970.063 1954.096, 967.475 1951.171, 965 1947.894 C 960.647 1942.130, 947.491 1925.612, 934.704 1909.856 C 931.292 1905.652, 926.700 1899.826, 924.500 1896.910 C 917.553 1887.704, 915.530 1886, 911.546 1886 C 909.561 1886, 907.721 1886.563, 907.457 1887.250 M 1118.500 1887.197 C 1097.773 1893.994, 1086.038 1909.308, 1086.011 1929.593 C 1085.977 1954.926, 1104.162 1972.956, 1129.782 1972.989 C 1143.768 1973.007, 1153.445 1968.764, 1162.827 1958.499 C 1171.230 1949.305, 1174.388 1940.412, 1173.823 1927.542 C 1172.773 1903.613, 1153.746 1885.789, 1129.593 1886.106 C 1125.142 1886.165, 1120.150 1886.655, 1118.500 1887.197 M 1274.189 1886.714 C 1269.891 1887.535, 1270.153 1889.553, 1276.308 1903 C 1277.693 1906.025, 1281.745 1915.475, 1285.313 1924 C 1303.270 1966.906, 1305.197 1971.295, 1306.489 1972.235 C 1307.045 1972.639, 1309.307 1972.976, 1311.516 1972.985 L 1315.532 1973 1319.411 1963.750 C 1323.628 1953.693, 1330.106 1938.855, 1333.055 1932.500 C 1335.562 1927.098, 1346.603 1901.908, 1349.642 1894.657 C 1352.853 1886.999, 1350.310 1883.923, 1343.790 1887.577 C 1342.377 1888.369, 1330.094 1915.437, 1314.685 1951.715 C 1312.277 1957.385, 1311.340 1958.697, 1310.310 1957.843 C 1309.590 1957.244, 1309 1956.374, 1309 1955.907 C 1309 1955.441, 1307.875 1952.600, 1306.500 1949.594 C 1305.125 1946.588, 1304 1943.888, 1304 1943.594 C 1304 1943.300, 1302.917 1940.683, 1301.593 1937.780 C 1294.415 1922.031, 1289.271 1910.244, 1284.923 1899.578 C 1280.611 1889.001, 1278.689 1885.743, 1277 1886.151 C 1276.725 1886.218, 1275.460 1886.471, 1274.189 1886.714 M 1475.207 1887.251 C 1474.635 1887.939, 1470.766 1896.265, 1466.608 1905.752 C 1459.131 1922.815, 1457.144 1927.287, 1452.278 1938 C 1444.289 1955.590, 1440 1966.658, 1440 1969.686 C 1440 1973.014, 1440.111 1973.111, 1443.560 1972.810 C 1447.036 1972.507, 1447.219 1972.272, 1451.383 1962.727 C 1453.728 1957.351, 1456.081 1952.519, 1456.612 1951.988 C 1458.285 1950.315, 1500.866 1950.410, 1502.379 1952.090 C 1503.077 1952.866, 1505.384 1957.888, 1507.507 1963.250 L 1511.365 1973 1515.683 1973 C 1519.050 1973, 1520 1972.632, 1520 1971.329 C 1520 1969.846, 1511.759 1949.173, 1506.914 1938.500 C 1505.915 1936.300, 1500.799 1924.150, 1495.545 1911.500 C 1490.292 1898.850, 1485.234 1887.938, 1484.305 1887.250 C 1482.127 1885.637, 1476.546 1885.637, 1475.207 1887.251 M 1606.250 1886.662 C 1604.657 1887.305, 1604.622 1892.222, 1606.200 1893.800 C 1607.013 1894.613, 1611.689 1895, 1620.700 1895 L 1634 1895 1634.100 1931.750 C 1634.155 1951.963, 1634.510 1969.625, 1634.889 1971 C 1635.694 1973.918, 1640.892 1975.040, 1642.823 1972.713 C 1643.638 1971.731, 1644.052 1960.215, 1644.238 1933.412 L 1644.500 1895.500 1659 1895 L 1673.500 1894.500 1673.824 1891.105 C 1674.019 1889.063, 1673.621 1887.375, 1672.824 1886.870 C 1671.432 1885.988, 1608.409 1885.791, 1606.250 1886.662 M 1776.667 1888.667 C 1776.300 1889.033, 1776 1908.068, 1776 1930.967 C 1776 1975.444, 1775.950 1975, 1781 1975 C 1786.044 1975, 1786 1975.382, 1786 1931.882 C 1786 1909.487, 1785.727 1890.452, 1785.393 1889.582 C 1784.778 1887.980, 1778.058 1887.276, 1776.667 1888.667 M 1894.239 1930.736 L 1894.500 1973.500 1925.391 1973.500 C 1959.220 1973.500, 1959.101 1973.522, 1957.628 1967.655 L 1956.962 1965 1930.950 1965 C 1911.015 1965, 1904.846 1964.708, 1904.547 1963.750 C 1903.816 1961.410, 1903.220 1937.263, 1903.867 1936.216 C 1904.273 1935.558, 1912.254 1935.093, 1925.505 1934.955 C 1951.102 1934.689, 1950 1934.915, 1950 1929.933 L 1950 1926 1927.475 1926 C 1905.026 1926, 1904.948 1925.992, 1904.129 1923.750 C 1903.112 1920.963, 1903.294 1898.951, 1904.349 1897.245 C 1904.931 1896.303, 1911.453 1896, 1931.119 1896 L 1957.121 1896 1956.810 1892.250 L 1956.500 1888.500 1925.239 1888.236 L 1893.979 1887.971 1894.239 1930.736 M 571.484 1897.250 C 571.179 1898.487, 571.058 1907.150, 571.215 1916.500 L 571.500 1933.500 577.971 1934.118 C 581.530 1934.458, 589.694 1934.437, 596.114 1934.072 C 606.565 1933.477, 608.220 1933.120, 611.932 1930.664 C 621.737 1924.175, 623.674 1911.817, 616.384 1902.259 C 611.531 1895.897, 608.155 1895, 589.059 1895 C 572.239 1895, 572.032 1895.027, 571.484 1897.250 M 1121.962 1895.865 C 1096.387 1901.298, 1085.805 1934.901, 1103.954 1953.050 C 1121.843 1970.938, 1150.199 1966.592, 1161.184 1944.278 C 1165.531 1935.447, 1165.856 1923.389, 1161.956 1915.588 C 1154.423 1900.520, 1138.052 1892.446, 1121.962 1895.865 M 1478.133 1902.087 C 1476.846 1905.388, 1473.854 1912.181, 1470.123 1920.275 C 1468.405 1924.001, 1467 1927.252, 1467 1927.498 C 1467 1927.744, 1465.825 1930.427, 1464.388 1933.461 C 1460.334 1942.025, 1460.290 1942, 1479.500 1942 C 1493.488 1942, 1496.155 1941.761, 1496.653 1940.461 C 1497.239 1938.934, 1495.757 1935.083, 1486.134 1913.124 C 1480.345 1899.916, 1479.458 1898.692, 1478.133 1902.087"/></g></svg>